<?xml version="1.0" encoding="utf-8"?>
<svg id="master-artboard" viewBox="0 0 707.5320434570312 573.03564453125" version="1.1" xmlns="http://www.w3.org/2000/svg" x="0px" y="0px" style="enable-background:new 0 0 1400 980;" width="707.5320434570312px" height="573.03564453125px"><rect id="ee-background" x="0" y="0" width="707.5320434570312" height="573.03564453125" style="fill: white; fill-opacity: 0; pointer-events: none;"/><g transform="matrix(11.86440658569336, 0, 0, 11.86440658569336, -712.9738568407798, 22.723443162279068)"><path d="M76.0499 44.9955C75.7629 44.9955 68.9691 44.9149 65.1036 37.988L65.0856 37.9544C63.2538 34.5559 62.0878 31.0813 61.6192 27.6268C61.2067 24.5913 61.3277 21.5602 61.9802 18.6165C63.2157 13.0271 66.0251 9.3105 66.8547 8.30238L66.9444 8.19709C66.9982 8.13213 67.052 8.0694 67.1081 8.00667C71.6104 2.91905 78.4625 0 85.9066 0C89.308 0 92.6623 0.609349 95.8776 1.80789C95.8776 1.80789 96.1309 1.89974 96.261 1.95126L96.2969 1.9647C96.4314 2.01623 96.5682 2.07 96.7027 2.126C99.9785 3.45671 102.826 5.13242 105.183 7.11505H105.216L105.976 7.80953C107.207 8.93638 108.039 9.93553 108.526 10.5852C108.884 11.0377 109.158 11.4544 109.358 11.8621L109.409 11.9697L117.396 32.8108L117.438 33.0079C117.658 34.016 117.804 35.0174 117.876 35.9875C117.889 36.1689 117.903 36.3504 117.914 36.5318C117.963 37.3047 117.988 38.5727 117.99 38.6265V38.678C117.99 42.1638 115.151 45 111.663 45H76.0499V44.9955Z" fill="white" transform="matrix(1, 0, 0, 1, 0, -0.16857143684649856)"/><path d="M109.433 19.1877H93.2799C92.5332 20.3818 92.0938 21.7864 92.0938 23.2964C92.0938 24.7503 92.5018 26.1079 93.2014 27.2728H112.634C111.628 24.7324 110.451 21.7573 109.433 19.1877Z" fill="#FFCA00"/><path d="M112.634 27.2729H93.2012C94.5622 29.5446 97.0398 31.0724 99.8762 31.0724H114.119C114.067 30.929 114.022 30.7834 113.968 30.6423C113.594 29.6969 113.134 28.5387 112.634 27.2729Z" fill="#003C78"/><path d="M111.662 42.3521C113.693 42.3521 115.341 40.7055 115.341 38.6758C115.341 38.6758 115.316 37.4235 115.269 36.7021H67.4165C70.5713 42.3521 76.0512 42.3521 76.0512 42.3521H111.662Z" fill="#FFCA00"/><path d="M115.235 36.18C115.17 35.2973 115.038 34.4259 114.85 33.5656H99.8763C95.6184 33.5656 91.9591 30.9647 90.3985 27.2705H64.2412C64.6336 30.1582 65.5955 33.3237 67.4161 36.6997H115.271C115.26 36.5272 115.246 36.3547 115.235 36.18Z" fill="#003C78"/><path d="M90.4604 19.1877H64.5632C64.0452 21.5311 63.8322 24.2507 64.2425 27.2728H90.3998C89.8841 26.0496 89.5971 24.7055 89.5971 23.2964C89.5949 21.8357 89.9066 20.4468 90.4604 19.1877Z" fill="#FFCA00"/><path d="M97.243 9.75877H104.185C102.42 8.14579 99.7004 6.199 95.6981 4.57482C95.5636 4.51881 95.4268 4.46729 95.2901 4.41352C95.1757 4.36871 94.9493 4.28583 94.9493 4.28583C85.4334 0.732781 74.9602 3.12089 69.0879 9.75877H97.243Z" fill="#FFCA00"/><path d="M107.982 15.5205H99.876C97.0957 15.5205 94.6584 16.9901 93.2817 19.1878H109.434C108.885 17.8033 108.385 16.5398 107.982 15.5205Z" fill="#229645"/><path d="M104.186 9.75854H69.0914C69.0242 9.83247 68.9614 9.91088 68.8963 9.98705C68.1811 10.8518 65.6766 14.1584 64.5645 19.1878H90.4617C92.0514 15.5653 95.6703 13.0248 99.8766 13.0248H106.978C106.854 12.7717 106.661 12.4917 106.426 12.2004C105.989 11.609 105.267 10.7465 104.186 9.75854Z" fill="#229645"/></g></svg>